<?xml version="1.0" encoding="utf-8"?>
<!-- Generator: Adobe Illustrator 15.1.0, SVG Export Plug-In . SVG Version: 6.00 Build 0)  -->
<!DOCTYPE svg PUBLIC "-//W3C//DTD SVG 1.1//EN" "http://www.w3.org/Graphics/SVG/1.1/DTD/svg11.dtd">
<svg version="1.1" id="Layer_1" xmlns="http://www.w3.org/2000/svg" xmlns:xlink="http://www.w3.org/1999/xlink" x="0px" y="0px"
	 width="370px" height="370px" viewBox="65 65 370 370" enable-background="new 65 65 370 370" xml:space="preserve">
<path d="M309.3,203.008c-4.096,0-7.411,3.32-7.411,7.412v44.477c0,28.611-23.277,51.888-51.889,51.888
	c-28.612,0-51.888-23.276-51.888-51.888V210.42c0-4.096-3.32-7.412-7.412-7.412c-4.092,0-7.412,3.32-7.412,7.412v44.477
	c0,34.279,25.992,62.592,59.3,66.291v41.033h-25c-4.096,0-7.412,3.319-7.412,7.411c0,4.097,3.32,7.412,7.412,7.412h64.828
	c4.096,0,7.412-3.319,7.412-7.412c0-4.096-3.32-7.411-7.412-7.411h-25v-41.033c33.309-3.699,59.3-32.012,59.3-66.291V210.42
	C316.712,206.328,313.396,203.008,309.3,203.008z"/>
<path d="M250,297.889c23.704,0,42.992-19.289,42.992-42.992v-88.948c0-23.704-19.288-42.992-42.992-42.992
	s-42.992,19.284-42.992,42.992V254.9C207.008,278.604,226.296,297.889,250,297.889z M221.832,165.948
	c0-15.532,12.636-28.168,28.168-28.168s28.168,12.636,28.168,28.168V254.9c0,15.531-12.636,28.168-28.168,28.168
	s-28.168-12.637-28.168-28.168V165.948z"/>
<g>
	<path d="M250,430c-99.252,0-180-80.748-180-180S150.748,70,250,70s180,80.748,180,180S349.252,430,250,430z M250,81.612
		c-92.848,0-168.388,75.54-168.388,168.388c0,92.848,75.54,168.389,168.388,168.389c92.848,0,168.388-75.541,168.388-168.389
		C418.388,157.152,342.848,81.612,250,81.612z"/>
</g>
</svg>
