<?xml version="1.0" encoding="utf-8"?>
<!-- Generator: Adobe Illustrator 15.1.0, SVG Export Plug-In . SVG Version: 6.00 Build 0)  -->
<!DOCTYPE svg PUBLIC "-//W3C//DTD SVG 1.1//EN" "http://www.w3.org/Graphics/SVG/1.1/DTD/svg11.dtd">
<svg version="1.1" id="Layer_1" xmlns="http://www.w3.org/2000/svg" xmlns:xlink="http://www.w3.org/1999/xlink" x="0px" y="0px"
	 width="370px" height="370px" viewBox="65 65 370 370" enable-background="new 65 65 370 370" xml:space="preserve">
<g>
	<path d="M344.444,242.5L211.64,147.2c-2.44-1.748-5.656-1.984-8.316-0.616c-2.668,1.372-4.348,4.116-4.348,7.116v190.6
		c0,3,1.676,5.748,4.348,7.116c1.152,0.588,2.404,0.884,3.652,0.884c1.644,0,3.28-0.508,4.664-1.5l132.804-95.3
		c2.092-1.504,3.336-3.92,3.336-6.5S346.536,244.004,344.444,242.5z M214.976,328.716V169.284L326.06,249L214.976,328.716z"/>
	<path d="M250,69c-99.252,0-180,80.748-180,180s80.748,180,180,180s180-80.748,180-180S349.252,69,250,69z M250,413
		c-90.428,0-164-73.572-164-164S159.572,85,250,85c90.428,0,164,73.572,164,164S340.428,413,250,413z"/>
</g>
</svg>
