<?xml version="1.0" encoding="utf-8"?>
<!-- Generator: Adobe Illustrator 15.1.0, SVG Export Plug-In . SVG Version: 6.00 Build 0)  -->
<!DOCTYPE svg PUBLIC "-//W3C//DTD SVG 1.1//EN" "http://www.w3.org/Graphics/SVG/1.1/DTD/svg11.dtd">
<svg version="1.1" id="Layer_1" xmlns="http://www.w3.org/2000/svg" xmlns:xlink="http://www.w3.org/1999/xlink" x="0px" y="0px"
	 width="370px" height="370px" viewBox="65 15 370 370" enable-background="new 65 15 370 370" xml:space="preserve">
<path fill="#B80000" d="M250,233.064c15.532,0,28.168-12.636,28.168-28.168v-88.948c0-15.532-12.636-28.168-28.168-28.168
	s-28.168,12.636-28.168,28.168V204.9C221.832,220.428,234.468,233.064,250,233.064z"/>
<path fill="#B80000" d="M250,20c-99.24,0-180,80.76-180,180s80.76,180,180,180s180-80.76,180-180S349.24,20,250,20z
	 M207.008,115.948c0-23.704,19.288-42.992,42.992-42.992s42.992,19.288,42.992,42.992V204.9c0,23.704-19.288,42.992-42.992,42.992
	s-42.992-19.288-42.992-42.992V115.948z M316.712,204.896c0,34.28-25.991,62.592-59.3,66.292v41.033h25
	c4.096,0,7.412,3.319,7.412,7.411c0,4.097-3.32,7.412-7.412,7.412h-64.824c-4.096,0-7.412-3.319-7.412-7.412
	c0-4.096,3.32-7.411,7.412-7.411h25v-41.033c-33.308-3.699-59.3-32.012-59.3-66.292V160.42c0-4.096,3.32-7.412,7.412-7.412
	c4.092,0,7.412,3.32,7.412,7.412v44.476c0,28.612,23.276,51.888,51.888,51.888c28.611,0,51.889-23.276,51.889-51.888V160.42
	c0-4.096,3.319-7.412,7.411-7.412s7.412,3.32,7.412,7.412V204.896L316.712,204.896z"/>
</svg>
